<svg width="256" height="29" viewBox="0 0 256 29" fill="none" xmlns="http://www.w3.org/2000/svg">
<path d="M2.98023e-08 24.52V12.32L7.36 19.72V28H3.56L2.98023e-08 24.52ZM24.28 7.56V17.92H19.2L24.28 23V28H19.04L4.04 13V10.64H17.04V9.72L15.6 8.24H3.48L2.98023e-08 4.76V-1.90735e-06H16.72L24.28 7.56ZM34.7278 20.76H46.8478L50.2878 24.24V28H29.4878L26.0078 24.52V3.4L33.2478 10.64V19.28L34.7278 20.76ZM35.6478 10.6H42.0078L46.6878 15.28V17.84H37.0878L35.6478 16.36V10.6ZM44.6078 7.68H33.6878L28.3278 2.32V-1.90735e-06H46.8478L50.2878 3.48V10.6H47.4878L44.6078 7.68ZM75.2019 3.52V8.2H65.2019L66.6819 9.68V18.36H64.3219L58.2019 12.24V8.2H52.4019L50.9219 6.72V-1.90735e-06H71.6819L75.2019 3.52ZM58.2019 18H60.5619L66.6819 24.08V28H58.2019V18ZM75.7578 24.52V12.32L83.1178 19.72V28H79.3178L75.7578 24.52ZM100.038 7.56V17.92H94.9578L100.038 23V28H94.7978L79.7978 13V10.64H92.7978V9.72L91.3578 8.24H79.2378L75.7578 4.76V-1.90735e-06H92.4778L100.038 7.56ZM126.007 3.48V24.56L122.527 28H105.167L101.727 24.52V5.88H104.287L108.967 10.6V19.28L110.447 20.76H118.767V10.72L115.327 7.24H109.127L104.287 2.4V-1.90735e-06H122.567L126.007 3.48ZM148.653 -1.90735e-06L152.133 3.48V25.64H147.413L143.933 22.16V-1.90735e-06H148.653ZM136.013 3.48L136.053 17.72L146.413 28.04H135.373L127.813 20.48V-1.90735e-06H132.533L136.013 3.48ZM162.853 20.76H174.973L178.413 24.24V28H157.613L154.133 24.52V3.4L161.373 10.64V19.28L162.853 20.76ZM163.773 10.6H170.133L174.813 15.28V17.84H165.213L163.773 16.36V10.6ZM172.733 7.68H161.813L156.453 2.32V-1.90735e-06H174.973L178.413 3.48V10.6H175.613L172.733 7.68ZM179.516 24.52V12.32L186.876 19.72V28H183.076L179.516 24.52ZM203.796 7.56V17.92H198.716L203.796 23V28H198.556L183.556 13V10.64H196.556V9.72L195.116 8.24H182.996L179.516 4.76V-1.90735e-06H196.236L203.796 7.56ZM224.37 18.08H209.77L205.25 13.6V3.24L211.61 9.56H226.09L229.57 13.04L229.53 20.8H227.05L224.37 18.08ZM205.25 20.48H223.37L229.53 26.72V28H210.21L205.25 23.08V20.48ZM229.53 7.16L212.57 7.2L207.89 2.48V-1.90735e-06H226.09L229.53 3.48V7.16ZM255.46 3.48V24.56L251.98 28H234.62L231.18 24.52V5.88H233.74L238.42 10.6V19.28L239.9 20.76H248.22V10.72L244.78 7.24H238.58L233.74 2.4V-1.90735e-06H252.02L255.46 3.48Z" fill="white"/>
</svg>
